<?xml version="1.0" encoding="utf-8"?>
<!-- Generator: Adobe Illustrator 23.1.0, SVG Export Plug-In . SVG Version: 6.00 Build 0)  -->
<svg version="1.0" id="Capa_2" xmlns="http://www.w3.org/2000/svg" xmlns:xlink="http://www.w3.org/1999/xlink" x="0px" y="0px"
	 viewBox="0 0 25.4 25.4" style="enable-background:new 0 0 25.4 25.4;" xml:space="preserve">
<path d="M12.7,25.4c7,0,12.7-5.7,12.7-12.7S19.7,0,12.7,0S0,5.7,0,12.7S5.7,25.4,12.7,25.4z M14.5,21.1h-3.6c-0.7,0-1.2-0.6-1.2-1.2
	c0-0.7,0.6-1.2,1.2-1.2h3.6c0.6,0,1.1,0.5,1.2,1.2C15.7,20.6,15.1,21.1,14.5,21.1z M12.7,4.4c3.2,0,5.9,2.6,5.9,5.9
	c0,2.1-1.2,4-3,5.1v0.2c0,1.2-1,2.2-2.2,2.2h-1.5c-1.2,0-2.2-1-2.2-2.2v-0.2c-1.7-1-2.9-2.9-2.9-5.1C6.8,7.1,9.4,4.4,12.7,4.4z"/>
</svg>
