<?xml version="1.0" encoding="utf-8"?>
<!-- Generator: Adobe Illustrator 23.1.0, SVG Export Plug-In . SVG Version: 6.00 Build 0)  -->
<svg version="1.0" id="Capa_2" xmlns="http://www.w3.org/2000/svg" xmlns:xlink="http://www.w3.org/1999/xlink" x="0px" y="0px"
	 viewBox="0 0 25.4 25.4" style="enable-background:new 0 0 25.4 25.4;" xml:space="preserve">
<g>
	<path d="M12.7,0C5.7,0,0,5.7,0,12.7s5.7,12.7,12.7,12.7s12.7-5.7,12.7-12.7S19.7,0,12.7,0z M5.8,8.1c0-1.1,0.9-2,2-2h9.8
		c1.1,0,2,0.9,2,2v5.3c0,1.1-0.9,2-2,2H7.8c-1.1,0-2-0.9-2-2V8.1z M4.2,19.3l1.5-2.6h13.9l1.5,2.6H4.2z"/>
	<path d="M7.8,14.4h9.8c0.5,0,1-0.4,1-1V8.1c0-0.5-0.4-1-1-1H7.8c-0.5,0-1,0.4-1,1v5.3C6.8,13.9,7.2,14.4,7.8,14.4z"/>
</g>
</svg>
