<?xml version="1.0" encoding="utf-8"?>
<!-- Generator: Adobe Illustrator 23.1.0, SVG Export Plug-In . SVG Version: 6.00 Build 0)  -->
<svg version="1.0" id="Capa_2" xmlns="http://www.w3.org/2000/svg" xmlns:xlink="http://www.w3.org/1999/xlink" x="0px" y="0px"
	 viewBox="0 0 25.4 25.4" style="enable-background:new 0 0 25.4 25.4;" xml:space="preserve">
<path d="M12.7,25.4c7,0,12.7-5.7,12.7-12.7C25.4,5.6,19.7,0,12.7,0S0,5.7,0,12.7S5.7,25.4,12.7,25.4z M5.1,8.2
	c0-0.1,0.1-0.3,0.1-0.5c0.3,0,0.4-0.2,0.5-0.3l2.1-2.1c0.1-0.1,0.3-0.2,0.5-0.2c0.1,0,0.3,0,0.4,0.1C8.8,5.3,8.9,5.4,9,5.5l1.7,3.3
	c0.1,0.2,0.1,0.4,0.1,0.6c0,0.2-0.1,0.4-0.3,0.5l-0.8,0.8c0,0,0,0.1-0.1,0.1v0.1c0,0.2,0.1,0.5,0.3,0.8c0.1,0.3,0.3,0.6,0.6,0.9
	c0.3,0.4,0.6,0.8,1.1,1.3s0.9,0.9,1.3,1.1c0.4,0.3,0.7,0.5,0.9,0.6c0.3,0.1,0.4,0.2,0.6,0.2h0.2h0.1c0,0,0.1,0,0.1-0.1l0.9-0.9
	c0.2-0.2,0.4-0.3,0.7-0.3c0.2,0,0.3,0,0.4,0.1l3.1,1.8c0.4,0.3,0.5,0.4,0.5,0.7c0,0.2,0,0.5-0.2,0.6l-2.1,2.1
	c-0.1,0.1-0.2,0.2-0.4,0.3c-0.2,0.1-0.3,0.1-0.5,0.1c0,0,0,0-0.1,0c-0.1,0-0.1,0-0.2,0c-0.2,0-0.5,0-1-0.1c-0.5-0.1-1-0.2-1.7-0.5
	s-1.4-0.7-2.2-1.2s-1.7-1.3-2.7-2.3c-0.8-0.7-1.4-1.4-1.9-2.1s-0.9-1.3-1.2-1.9c-0.3-0.6-0.5-1.1-0.7-1.6S5.2,9.6,5.2,9.3
	C5.1,9,5.1,8.7,5.1,8.5S5.1,8.2,5.1,8.2z"/>
</svg>
