<?xml version="1.0" encoding="utf-8"?>
<!-- Generator: Adobe Illustrator 23.1.0, SVG Export Plug-In . SVG Version: 6.00 Build 0)  -->
<svg version="1.0" id="Capa_2" xmlns="http://www.w3.org/2000/svg" xmlns:xlink="http://www.w3.org/1999/xlink" x="0px" y="0px"
	 viewBox="0 0 25.4 25.4" style="enable-background:new 0 0 25.4 25.4;" xml:space="preserve">
<path d="M12.7,25.4c7,0,12.7-5.7,12.7-12.7C25.4,5.6,19.7,0,12.7,0S0,5.7,0,12.7S5.7,25.4,12.7,25.4z M10.9,12.8
	c-0.9-0.6-1.4-1.6-1.4-2.7c0-1.9,1.5-3.4,3.4-3.4c1.9,0,3.4,1.5,3.4,3.4c0,1.1-0.6,2.1-1.4,2.7c2.4,0.8,4.2,3.2,4.3,5.9H6.7
	C6.7,16,8.5,13.6,10.9,12.8z"/>
</svg>
